<svg xmlns="http://www.w3.org/2000/svg" viewBox="0 0 120 120" width="120" height="120">
  <defs>
    <linearGradient id="bg1" x1="0%" y1="0%" x2="100%" y2="100%">
      <stop offset="0%" style="stop-color:#667eea;stop-opacity:1" />
      <stop offset="100%" style="stop-color:#764ba2;stop-opacity:1" />
    </linearGradient>
    <linearGradient id="skin1" x1="0%" y1="0%" x2="0%" y2="100%">
      <stop offset="0%" style="stop-color:#fdd9b5;stop-opacity:1" />
      <stop offset="100%" style="stop-color:#f5c69a;stop-opacity:1" />
    </linearGradient>
  </defs>
  <!-- Background circle -->
  <circle cx="60" cy="60" r="58" fill="url(#bg1)" stroke="#fff" stroke-width="2"/>
  <!-- Body -->
  <ellipse cx="60" cy="115" rx="35" ry="25" fill="#4a5568"/>
  <!-- Neck -->
  <rect x="52" y="78" width="16" height="10" rx="3" fill="url(#skin1)"/>
  <!-- Head -->
  <ellipse cx="60" cy="55" rx="28" ry="30" fill="url(#skin1)"/>
  <!-- Hair -->
  <path d="M32 48 C32 25, 88 25, 88 48 C88 35, 80 22, 60 22 C40 22, 32 35, 32 48Z" fill="#2d3748"/>
  <path d="M32 48 C30 55, 30 42, 33 38" fill="#2d3748" stroke="#2d3748" stroke-width="3"/>
  <path d="M88 48 C90 55, 90 42, 87 38" fill="#2d3748" stroke="#2d3748" stroke-width="3"/>
  <!-- Eyes -->
  <ellipse cx="48" cy="52" rx="5" ry="5.5" fill="white"/>
  <ellipse cx="72" cy="52" rx="5" ry="5.5" fill="white"/>
  <circle cx="49" cy="52" r="2.8" fill="#2d3748"/>
  <circle cx="73" cy="52" r="2.8" fill="#2d3748"/>
  <circle cx="50" cy="51" r="1" fill="white"/>
  <circle cx="74" cy="51" r="1" fill="white"/>
  <!-- Eyebrows -->
  <path d="M42 44 Q48 40 54 44" stroke="#2d3748" stroke-width="2" fill="none" stroke-linecap="round"/>
  <path d="M66 44 Q72 40 78 44" stroke="#2d3748" stroke-width="2" fill="none" stroke-linecap="round"/>
  <!-- Nose -->
  <path d="M58 58 Q60 62 62 58" stroke="#e8b88a" stroke-width="1.5" fill="none" stroke-linecap="round"/>
  <!-- Smile -->
  <path d="M50 66 Q60 74 70 66" stroke="#c0392b" stroke-width="2" fill="none" stroke-linecap="round"/>
  <!-- Glasses -->
  <circle cx="48" cy="52" r="9" fill="none" stroke="#1a202c" stroke-width="2"/>
  <circle cx="72" cy="52" r="9" fill="none" stroke="#1a202c" stroke-width="2"/>
  <line x1="57" y1="52" x2="63" y2="52" stroke="#1a202c" stroke-width="2"/>
  <line x1="39" y1="50" x2="33" y2="47" stroke="#1a202c" stroke-width="2"/>
  <line x1="81" y1="50" x2="87" y2="47" stroke="#1a202c" stroke-width="2"/>
</svg>